<?xml version="1.0" standalone="no"?>
<!DOCTYPE svg PUBLIC "-//W3C//DTD SVG 20010904//EN"
 "http://www.w3.org/TR/2001/REC-SVG-20010904/DTD/svg10.dtd">
<svg version="1.0" xmlns="http://www.w3.org/2000/svg"
 width="1072.000000pt" height="1072.000000pt" viewBox="0 0 1072.000000 1072.000000"
 preserveAspectRatio="xMidYMid meet">
<metadata>
Created by potrace 1.14, written by Peter Selinger 2001-2017
</metadata>
<g transform="translate(0.000000,1072.000000) scale(0.100000,-0.100000)"
fill="#000000" stroke="none">
<path d="M5316 9917 c-46 -80 -1510 -2609 -1577 -2722 l-59 -100 92 -90 c570
-555 1303 -1254 1309 -1248 4 5 65 107 134 228 70 121 130 223 133 227 4 4
202 -332 441 -745 239 -414 523 -905 631 -1092 108 -187 307 -531 442 -765
135 -234 447 -774 693 -1200 246 -426 547 -946 667 -1155 121 -209 238 -410
259 -448 l40 -67 1095 0 1096 0 -20 33 c-11 17 -331 570 -712 1227 -381 657
-718 1238 -748 1290 -31 52 -70 120 -87 150 -17 30 -449 775 -960 1655 -511
880 -943 1625 -960 1655 -17 30 -72 125 -122 210 -50 85 -115 198 -145 250
-30 52 -383 660 -783 1350 -401 690 -748 1290 -772 1333 -24 42 -47 77 -51 77
-4 0 -20 -24 -36 -53z"/>
<path d="M3425 6648 c-27 -46 -72 -123 -101 -173 -29 -49 -209 -360 -399 -690
-191 -330 -389 -672 -440 -760 -51 -88 -481 -830 -955 -1650 -474 -819 -885
-1530 -914 -1580 -64 -110 -114 -197 -390 -673 -119 -205 -216 -375 -216 -377
0 -3 492 -5 1093 -5 l1093 0 134 233 c73 127 191 331 260 452 132 230 908
1577 1063 1845 49 85 123 215 165 287 l76 132 60 -57 c34 -31 360 -345 725
-697 365 -352 668 -640 672 -640 18 0 1158 1091 1155 1105 -4 17 -962 1659
-977 1675 -6 6 -39 -20 -92 -73 l-83 -83 -916 883 c-503 486 -926 893 -940
906 l-25 23 -48 -83z"/>
</g>
</svg>
